<?xml version="1.0" encoding="UTF-8"?>
<!DOCTYPE svg PUBLIC "-//W3C//DTD SVG 1.1//EN" "http://www.w3.org/Graphics/SVG/1.1/DTD/svg11.dtd">
<!-- Creator: CorelDRAW -->
<svg xmlns="http://www.w3.org/2000/svg" xml:space="preserve" width="12.8246mm" height="12.5988mm" version="1.1" style="shape-rendering:geometricPrecision; text-rendering:geometricPrecision; image-rendering:optimizeQuality; fill-rule:evenodd; clip-rule:evenodd" viewBox="0 0 136.85 134.44"
>
 <g id="Layer_x0020_1">
  <metadata id="CorelCorpID_0Corel-Layer"/>
  <path fill="rgb(255, 0, 98)" d="M18.6 23.73c16.74,-16.74 40.55,-22.15 62.1,-16.34 13.75,-10.68 33.53,-9.79 46.04,2.72 13.05,13.05 13.45,33.99 1.29,47.77 4.11,20.41 -1.64,42.29 -17.31,57.96 -25.06,25.06 -66,24.76 -91.44,-0.68 -25.44,-25.44 -25.74,-66.37 -0.68,-91.44zm49.05 4.78c-12.13,-1.7 -24.53,1.86 -33.47,10.8 -15.71,15.71 -14.8,42.09 2.03,58.93 16.83,16.83 43.22,17.74 58.93,2.03 8.27,-8.27 11.93,-19.49 11.09,-30.72 -10.37,1.38 -21.2,-1.88 -29.12,-9.8 -8.46,-8.46 -11.61,-20.24 -9.45,-31.24zm25.01 -2.84c5.17,-5.17 13.5,-5.21 18.62,-0.09 5.12,5.12 5.08,13.45 -0.09,18.62 -5.17,5.17 -13.5,5.21 -18.62,0.09 -5.12,-5.12 -5.08,-13.45 0.09,-18.62z"/>
 </g>
</svg>
